<svg width="408" height="291" viewBox="0 0 408 291" fill="none" xmlns="http://www.w3.org/2000/svg">
<g clip-path="url(#clip0)">
<path d="M27.3522 31.5454C40.3344 23.7202 54.1331 18.5034 67.1153 15.4059C69.6464 4.23866 65.1557 0 65.5639 0C70.4629 0 101.408 0.978151 94.3044 11.2487C94.1411 11.4118 94.0594 11.6563 93.8961 11.6563C115.207 11.3303 128.27 18.3403 119.942 29.7521C109.899 43.5277 93.4879 55.7546 79.1993 64.8025C92.5898 62.2756 108.593 61.9496 100.02 78.6597C85.7312 106.455 30.3732 146.234 10.3692 133.436C-1.14329 126.1 -0.490094 110.531 0.326396 111.346C1.55113 112.569 6.61337 115.422 14.2884 116.645C33.8841 95.2882 52.9083 58.2 62.7062 29.7521C50.9488 35.1319 38.7014 44.0168 29.965 56.6513C27.5972 60.2378 15.3498 38.8 27.3522 31.5454ZM35.1905 115.748C49.1525 112.406 66.4621 103.195 84.9964 81.8387C100.673 63.9059 64.1759 77.926 50.5405 83.8765C44.4169 95.7773 39.1097 106.863 35.1905 115.748ZM59.7669 66.6773C66.4621 62.8462 79.8525 54.4504 97.9786 38.1479C110.634 26.6546 102.143 20.9487 86.5477 22.742C76.7498 37.2513 67.7685 52.4126 59.7669 66.6773Z" fill="#383838"/>
<path d="M149.663 75.2361C151.459 73.8504 157.174 69.4487 161.91 63.7429C162.726 62.7647 169.177 62.7647 169.585 64.1504C157.991 77.8445 149.663 82.4908 144.355 85.4252C138.477 93.495 124.433 106.537 121.167 107.923C115.288 110.287 105.409 101.402 106.062 96.3479C105.572 70.0193 121.984 40.5933 132.108 39.2891C144.682 37.4958 161.42 43.1202 158.562 56.4067C156.848 64.395 152.52 70.5899 149.663 75.2361ZM118.799 88.0336C115.942 95.9403 115.942 98.7118 117.33 99.1193C118.309 99.5269 126.638 94.3101 131.373 89.0933C128.76 89.9084 120.596 89.6639 118.799 88.0336ZM127.046 68.226C118.881 83.3874 133.006 83.2244 139.375 78.5782C151.622 60.4008 148.438 46.4622 147.866 46.7067C144.355 47.9294 133.333 56.5697 127.046 68.226Z" fill="#383838"/>
<path d="M146.642 117.949C148.601 96.3479 161.338 59.1782 169.912 42.8756C172.769 37.2513 183.057 46.3807 182.486 46.7882C179.873 48.8261 168.36 71.9756 165.503 82.3277C174.321 65.6176 191.222 44.6689 197.509 40.4303C200.53 38.3924 208.042 47.7664 206.409 50.3748C199.469 61.4605 190.324 70.3454 192.12 70.1008C195.794 69.6933 203.469 64.884 207.552 61.8681C207.96 61.4605 211.961 64.558 211.961 64.558C206.245 68.7966 198.979 72.1387 194.896 74.0135C191.222 75.6437 185.017 69.6933 185.588 68.4706C188.691 63.0092 196.611 53.3908 191.304 56.9773C175.464 69.6118 160.685 97.6521 159.379 117.052C201.918 113.873 240.211 111.591 243.069 112.406C246.09 113.221 256.786 126.997 255.561 131.48C248.948 155.282 156.113 171.176 147.785 132.376C101.98 139.224 52.0921 151.124 25.8828 166.775C24.4948 167.59 36.0073 132.621 46.7033 128.219C52.7453 125.529 95.7743 121.861 146.642 117.949ZM159.542 130.094C162.4 157.645 244.947 141.261 246.417 130.909C247.478 124.062 206.164 124.307 159.542 130.094Z" fill="#383838"/>
<path d="M238.089 93.4949C241.11 91.8647 256.052 73.7689 261.359 63.6613C261.359 63.6613 269.442 61.4605 268.462 63.6613C262.91 75.5622 242.171 101.728 234.578 108.982C233.353 109.96 224.29 105.885 223.065 101.646C222.494 99.6084 225.188 88.5227 228.862 82.0832C222.575 89.3378 208.695 106.618 204.204 108.412C200.938 109.634 195.141 103.929 192.937 101.239C187.303 94.3101 223.8 13.042 243.886 47.9294C244.947 46.2992 246.499 44.3429 246.744 42.7126C249.193 42.305 260.052 47.1958 258.011 49.6412C248.785 60.4008 236.048 94.7176 238.089 93.4949ZM240.702 52.2496C226.576 40.0227 207.307 85.8328 206.246 95.3697C224.78 76.2143 235.394 61.705 240.702 52.2496Z" fill="#383838"/>
<path d="M83.119 183.403C88.0995 180.224 91.1205 177.697 93.8966 174.763C93.8966 174.763 98.8772 174.029 98.3873 174.763C94.3865 179.98 84.507 186.745 79.3631 189.598C75.7705 195.223 72.2596 199.543 68.1772 202.07C64.4213 204.352 54.4602 203.292 53.562 200.358C48.4181 211.362 45.9687 226.034 45.0705 233.941C44.6623 237.283 33.3131 230.273 34.7011 227.502C40.6615 215.601 62.2985 162.292 61.9719 159.031C61.8902 157.482 69.8102 161.15 70.0551 163.025C70.1368 164.329 68.5854 167.019 67.8506 168.894C71.4431 165.308 76.9953 161.232 80.1796 159.52C83.6088 157.645 89.4876 164.085 89.7325 165.878C90.2224 169.057 87.3647 176.719 83.119 183.403ZM56.5014 193.185C60.2572 192.451 66.136 189.517 72.178 186.582C76.1788 180.876 82.5474 166.53 80.5062 164.329C79.608 163.27 68.6671 172.481 63.6865 177.942C60.9104 183.24 58.6242 188.783 56.5014 193.185ZM68.1772 192.533C61.8902 195.467 55.4399 197.424 57.1546 198.402C58.7059 199.38 63.1966 197.342 68.1772 192.533Z" fill="#383838"/>
<path d="M106.797 163.922C105.164 165.226 97.8974 179.898 96.0195 186.419C101.572 175.823 112.268 162.618 116.268 159.928C118.228 158.624 122.882 164.574 121.902 166.204C117.493 173.214 111.696 178.839 112.839 178.676C115.125 178.431 120.024 175.415 122.637 173.459C122.882 173.214 125.413 175.171 125.413 175.171C121.821 177.861 117.167 179.98 114.635 181.121C112.349 182.099 108.348 178.431 108.757 177.616C110.716 174.192 115.697 168.079 112.349 170.361C111.696 170.85 101.898 177.127 94.7131 202.885C92.6719 203.618 86.14 197.505 86.9565 194C89.9775 185.849 96.3461 166.286 98.7956 161.476C100.673 157.89 107.205 163.677 106.797 163.922Z" fill="#383838"/>
<path d="M141.988 193.511C143.948 192.533 153.337 181.039 156.685 174.682C156.685 174.682 161.829 173.296 161.175 174.682C157.665 182.181 144.519 198.809 139.783 203.374C139.049 204.026 133.252 201.418 132.517 198.728C132.108 197.424 133.823 190.413 136.191 186.338C132.19 190.903 123.454 201.907 120.596 203.048C118.555 203.782 114.881 200.195 113.411 198.565C109.818 194.163 132.925 142.729 145.662 164.818C146.315 163.759 147.377 162.536 147.458 161.476C149.01 161.232 155.868 164.329 154.644 165.878C148.765 172.562 140.763 194.245 141.988 193.511ZM143.703 167.427C134.803 159.683 122.556 188.702 121.902 194.734C133.578 182.588 140.355 173.459 143.703 167.427Z" fill="#383838"/>
<path d="M142.967 227.746C165.339 206.39 192.692 164.085 184.69 158.216C180.853 155.363 214.247 157.156 213.431 169.465C213.186 172.481 199.55 195.304 187.058 221.714C188.691 221.551 189.916 221.307 190.732 221.307C190.895 221.307 191.712 227.746 191.712 227.746C189.671 227.909 186.65 228.561 183.384 229.295C174.566 248.287 167.217 268.013 165.666 283.419C165.421 285.213 149.499 277.306 150.316 274.208C152.357 266.709 160.359 249.592 168.524 233.045C161.42 235.001 153.745 237.446 145.988 240.218C131.945 258.558 118.636 278.121 114.554 290.592C113.737 293.038 89.6506 280.729 92.1001 278.773C100.02 272.578 111.206 261.9 123.045 249.592C117.738 251.955 113.737 254.401 111.043 256.602C106.552 260.433 120.677 231.577 120.677 231.577C122.474 231.007 131.863 229.458 142.967 227.746ZM157.828 225.545L173.423 223.182C181.424 206.879 188.201 193.103 187.14 192.94C185.915 192.777 172.688 207.042 157.828 225.545Z" fill="#BB0049"/>
<path d="M241.273 219.921C241.926 218.943 250.009 217.965 250.417 219.35C238.987 238.506 210.246 266.057 199.958 264.834C197.509 264.59 189.834 259.944 189.099 252.037C187.956 240.707 206.164 196.527 221.595 194.978C233.761 193.837 239.232 200.113 239.15 205.412C239.15 208.265 235.067 218.535 230.74 220.736C230.577 220.899 218.983 223.671 219.146 223.1C219.962 221.47 227.556 208.754 227.311 203.945C218.411 205.493 199.55 241.603 203.551 253.749C208.287 254.319 229.434 238.424 241.273 219.921Z" fill="#BB0049"/>
<path d="M274.912 182.914C265.767 193.348 244.62 236.142 245.192 246.494C248.05 244.049 258.827 232.8 269.197 220.329C269.197 220.329 278.505 219.758 277.688 220.981C265.849 237.12 247.07 258.802 244.457 263.286C241.599 268.095 231.965 254.564 232.373 248.45C233.679 230.273 250.907 194.571 257.194 183.24L245.437 183.403C242.824 183.159 233.924 171.829 235.557 171.829L260.624 175.171C263.318 169.546 264.543 165.878 265.359 164.248C267.809 159.439 283.159 170.443 281.526 172.644L278.505 176.638H286.18C287.568 176.638 290.589 182.914 290.425 182.914H274.912Z" fill="#BB0049"/>
<path d="M270.83 255.053C275.484 249.021 292.467 227.828 297.121 220.573C297.121 220.573 305.041 219.432 304.224 220.573C296.876 232.066 277.689 258.232 272.79 263.856C270.34 266.709 259.481 256.52 257.685 248.776C256.46 243.478 273.933 207.776 275.157 205.819C276.382 203.782 290.752 210.547 289.283 212.585C270.34 240.055 266.992 260.107 270.83 255.053ZM281.281 200.929C280.465 200.358 286.425 185.767 288.221 184.382C290.426 182.751 298.917 189.68 300.305 192.533C296.223 194.978 290.507 203.211 289.691 205.249C289.364 206.227 282.261 201.499 281.281 200.929Z" fill="#BB0049"/>
<path d="M333.536 231.74C335.332 230.355 341.048 225.953 345.784 220.247C346.6 219.269 353.05 219.269 353.458 220.655C341.864 234.349 333.536 238.995 328.229 241.929C322.35 249.999 308.307 263.041 305.041 264.427C299.162 266.791 289.282 257.906 289.936 252.852C289.446 226.524 305.857 197.097 315.982 195.793C328.556 194 345.294 199.624 342.436 212.911C340.721 220.818 336.394 227.094 333.536 231.74ZM302.754 244.538C299.897 252.445 299.897 255.216 301.285 255.624C302.265 256.031 310.593 250.814 315.328 245.597C312.634 246.413 304.551 246.168 302.754 244.538ZM310.919 224.73C302.754 239.892 316.88 239.729 323.248 235.082C335.496 216.905 332.311 202.966 331.74 203.211C328.229 204.352 317.288 212.992 310.919 224.73Z" fill="#BB0049"/>
<path d="M374.769 254.401C378.443 251.792 392.895 233.045 400.897 220.573C400.897 220.573 408.817 219.432 408 220.573C398.774 236.713 381.464 261.655 376.157 264.264C372.891 264.019 362.195 256.683 360.644 251.629C358.684 245.516 376.239 216.905 381.546 208.02C367.094 221.714 349.948 245.271 346.192 264.264C345.947 265.65 333.455 257.906 332.883 253.912C332.312 249.836 354.03 204.434 353.214 199.38C352.806 196.527 363.91 203.048 363.093 205.901C360.807 213.155 355.5 220.41 352.397 230.11C360.97 219.432 380.566 195.712 385.383 195.304C387.588 193.918 397.304 204.026 395.834 206.879C389.792 214.378 371.34 246.902 374.769 254.401Z" fill="#BB0049"/>
<path d="M307.245 122.676C307.245 122.513 307.572 122.106 308.225 121.535C308.878 120.883 309.695 120.15 310.756 119.334C311.817 118.519 313.042 117.541 314.43 116.482C315.818 115.422 317.206 114.362 318.676 113.303C322.024 110.776 325.861 108.004 330.188 105.07C329.454 104.255 328.637 103.276 327.576 102.054C326.514 100.831 325.453 99.5269 324.473 98.2227C323.412 96.9185 322.432 95.6958 321.534 94.4731C320.636 93.2504 319.901 92.3538 319.411 91.7017C319.166 91.3756 319.329 90.9681 319.656 90.5605C320.064 90.0714 320.554 89.6639 321.207 89.3378C321.86 88.9302 322.513 88.6857 323.167 88.6042C323.82 88.5227 324.31 88.6042 324.555 89.0118C324.473 88.8487 324.718 89.1748 325.453 89.9899C326.188 90.805 327.086 91.7017 328.066 92.7613C329.29 94.0655 330.678 95.6143 332.148 97.2445C333.618 98.8748 335.006 100.505 336.312 102.054C337.619 103.603 338.68 105.07 339.496 106.374C340.313 107.678 340.803 108.656 340.803 109.308C340.803 109.797 340.558 110.368 339.986 111.02C339.415 111.672 338.68 112.324 337.782 113.139C336.884 113.873 335.822 114.688 334.598 115.585C333.373 116.4 332.148 117.297 330.76 118.112C329.454 119.008 328.147 119.987 326.678 120.883C325.29 121.861 323.902 122.839 322.513 123.818C321.125 124.796 319.819 125.855 318.594 126.752C317.37 127.73 316.308 128.627 315.41 129.524C314.838 130.094 314.185 130.094 313.206 129.605C312.307 129.116 311.409 128.464 310.511 127.567C309.613 126.671 308.878 125.774 308.143 124.796C307.408 123.818 307.245 123.166 307.245 122.676ZM331.903 122.676C331.903 122.513 332.148 122.187 332.638 121.698C333.128 121.209 333.781 120.557 334.598 119.824C335.414 119.09 336.312 118.356 337.374 117.46C338.435 116.645 339.496 115.829 340.558 114.933C343.089 112.976 346.028 110.776 349.294 108.412C348.396 107.434 347.253 106.048 345.865 104.418C344.477 102.787 343.089 101.076 341.701 99.3639C340.313 97.6521 339.007 96.0218 337.782 94.4731C336.557 92.9244 335.741 91.8647 335.251 91.2126C335.006 90.8866 335.169 90.479 335.496 89.9899C335.904 89.5008 336.394 89.0933 337.047 88.7672C337.7 88.4412 338.353 88.1966 339.007 88.1151C339.66 88.0336 340.15 88.1151 340.395 88.5227H340.476C340.64 88.7672 341.129 89.3378 341.864 90.1529C342.599 90.9681 343.497 91.9462 344.477 93.0059C345.947 94.6361 347.58 96.4294 349.376 98.3857C351.172 100.424 352.887 102.298 354.438 104.173C355.99 106.048 357.296 107.76 358.357 109.308C359.419 110.857 359.99 111.917 359.99 112.569C359.99 113.547 359.256 114.688 357.868 115.748C356.479 116.889 354.683 118.193 352.56 119.579C350.682 120.883 348.641 122.35 346.355 123.981C344.069 125.611 341.946 127.404 339.905 129.361C339.333 129.931 338.68 129.931 337.7 129.442C336.802 128.953 335.904 128.301 335.006 127.404C334.108 126.508 333.373 125.611 332.638 124.633C332.23 123.899 331.903 123.166 331.903 122.676Z" fill="#BB0049"/>
<path d="M7.75684 278.61C7.75684 278.529 8.00178 278.203 8.49168 277.713C8.98157 277.224 9.63476 276.735 10.3696 276.083C11.1861 275.431 12.0842 274.779 13.064 273.964C14.0438 273.23 15.1052 272.415 16.1667 271.6C18.6162 269.725 21.4739 267.687 24.6582 265.487C24.1683 264.916 23.5151 264.101 22.6986 263.204C21.9638 262.308 21.1473 261.329 20.4124 260.351C19.6776 259.373 18.8611 258.476 18.2079 257.58C17.4731 256.683 16.9832 256.031 16.6566 255.542C16.4933 255.297 16.5749 255.053 16.9015 254.645C17.2281 254.319 17.5547 253.993 18.0446 253.749C18.5345 253.504 19.0244 253.26 19.5143 253.178C20.0042 253.097 20.3308 253.178 20.5757 253.504C20.4941 253.423 20.739 253.586 21.2289 254.238C21.8005 254.808 22.372 255.542 23.1885 256.357C24.0866 257.335 25.1481 258.476 26.2095 259.699C27.3526 260.922 28.3324 262.145 29.3122 263.286C30.292 264.427 31.0268 265.487 31.68 266.465C32.3332 267.443 32.6598 268.176 32.6598 268.666C32.6598 268.992 32.4148 269.399 32.0066 269.888C31.5983 270.377 31.0268 270.866 30.3736 271.437C29.7204 272.008 28.9039 272.578 28.0058 273.23C27.1076 273.882 26.1279 274.534 25.1481 275.105C24.1683 275.757 23.1885 276.491 22.1271 277.224C21.0656 277.958 20.0042 278.692 19.0244 279.425C18.0446 280.159 17.0648 280.892 16.1667 281.626C15.2685 282.36 14.4521 283.012 13.7989 283.745C13.3906 284.153 12.9007 284.153 12.1659 283.827C11.5127 283.501 10.8595 283.012 10.2063 282.36C9.55311 281.708 8.98157 281.055 8.49168 280.322C8.00178 279.507 7.75684 278.936 7.75684 278.61ZM26.0462 278.61C26.0462 278.529 26.2095 278.284 26.6178 277.876C27.026 277.469 27.5159 277.061 28.0874 276.491C28.659 275.92 29.3938 275.35 30.1287 274.779C30.8635 274.127 31.68 273.556 32.4965 272.904C34.3744 271.437 36.5789 269.807 39.0284 268.095C38.3752 267.361 37.4771 266.383 36.4973 265.079C35.5175 263.856 34.4561 262.552 33.3946 261.329C32.3332 260.025 31.435 258.803 30.5369 257.661C29.6388 256.52 28.9856 255.705 28.659 255.216C28.4957 254.971 28.5773 254.645 28.9039 254.319C29.2305 253.993 29.5571 253.667 30.047 253.423C30.5369 253.178 31.0268 253.015 31.5167 252.934C32.0066 252.852 32.3332 252.934 32.5781 253.26H32.6598C32.7414 253.423 33.1497 253.83 33.6396 254.482C34.2111 255.134 34.8643 255.787 35.5991 256.602C36.6606 257.824 37.8853 259.129 39.2733 260.596C40.6614 262.063 41.8861 263.53 43.0292 264.916C44.1723 266.302 45.1521 267.606 45.9686 268.747C46.7851 269.888 47.1933 270.703 47.1933 271.192C47.1933 271.926 46.7034 272.741 45.642 273.556C44.5805 274.371 43.2741 275.35 41.6412 276.409C40.2531 277.387 38.7018 278.447 37.0688 279.67C35.4358 280.892 33.8029 282.197 32.3332 283.664C31.9249 284.071 31.435 284.071 30.7002 283.745C30.047 283.419 29.3938 282.93 28.7406 282.278C28.0874 281.626 27.5159 280.974 27.026 280.24C26.2912 279.507 26.0462 278.936 26.0462 278.61Z" fill="#383838"/>
</g>
<defs>
<clipPath id="clip0">
<rect width="408" height="291" fill="white"/>
</clipPath>
</defs>
</svg>
