<svg width="40" height="40" viewBox="0 0 40 40" fill="none" xmlns="http://www.w3.org/2000/svg">
<g clip-path="url(#clip0)">
<path d="M38.75 12.4993H1.2518C0.561835 12.4993 0.00186157 13.0592 0.00186157 13.7492C0.00186157 14.4392 0.561835 14.9992 1.2518 14.9992H38.75C39.44 14.9992 40 14.4392 40 13.7492C40 13.0592 39.44 12.4993 38.75 12.4993Z" fill="#E9204F"/>
<path d="M30.9354 12.9193L20.9359 1.66979C20.4609 1.13481 19.5384 1.13481 19.066 1.66979L9.06643 12.9193C8.60895 13.4342 8.65395 14.2267 9.17143 14.6842C9.6864 15.1417 10.4764 15.0967 10.9363 14.5792L20.0009 4.37966L29.0655 14.5792C29.313 14.8567 29.6555 14.9992 30.0005 14.9992C30.2954 14.9992 30.5929 14.8942 30.8304 14.6842C31.3454 14.2242 31.3954 13.4342 30.9354 12.9193Z" fill="#E9204F"/>
<path d="M39.6875 12.9268L30.9379 2.92722C30.7379 2.69723 30.4579 2.54724 30.1554 2.50974L20.1559 1.2598C20.0584 1.2498 19.9684 1.2498 19.8759 1.2573L7.37651 2.50724C6.99153 2.54474 6.64655 2.75973 6.44156 3.08721L0.191849 13.0867C-0.090638 13.5342 -0.0581395 14.1092 0.269345 14.5242L19.0185 38.2731C19.256 38.573 19.6184 38.748 20.0009 38.748C20.3834 38.748 20.7459 38.573 20.9809 38.2731L39.73 14.5242C40.1025 14.0517 40.085 13.3792 39.6875 12.9268ZM20.0009 35.4807L2.77673 13.6642L8.23647 4.92963L19.9859 3.75468L29.373 4.92963L37.1251 13.7892L20.0009 35.4807Z" fill="#E9204F"/>
<path d="M21.1534 37.0131L11.1539 13.2642C10.8839 12.6267 10.1464 12.3342 9.51643 12.5967C8.87896 12.8642 8.58148 13.5967 8.84896 14.2341L18.8485 37.983C19.051 38.4605 19.5135 38.748 20.0009 38.748C20.1609 38.748 20.3284 38.7155 20.4859 38.6505C21.1209 38.383 21.4209 37.6505 21.1534 37.0131Z" fill="#E9204F"/>
<path d="M30.4854 12.5967C29.843 12.3267 29.1155 12.6292 28.848 13.2642L18.8485 37.0131C18.581 37.6505 18.8785 38.383 19.5159 38.6505C19.6734 38.7155 19.8384 38.748 20.0009 38.748C20.4884 38.748 20.9509 38.4605 21.1534 37.983L31.1529 14.2341C31.4204 13.5967 31.1204 12.8642 30.4854 12.5967Z" fill="#E9204F"/>
<path d="M11.2139 13.4467L8.71398 3.44718C8.54649 2.77721 7.86402 2.36723 7.19905 2.53722C6.52908 2.70471 6.1216 3.38468 6.29159 4.05215L8.79147 14.0517C8.93147 14.6217 9.44144 14.9991 10.0014 14.9991C10.1014 14.9991 10.2039 14.9866 10.3039 14.9616C10.9739 14.7941 11.3814 14.1167 11.2139 13.4467Z" fill="#E9204F"/>
<path d="M30.0005 2.49963C29.3105 2.49963 28.7505 3.05961 28.7505 3.74958V13.7491C28.7505 14.4391 29.3105 14.999 30.0005 14.999C30.6904 14.999 31.2504 14.4391 31.2504 13.7491V3.74958C31.2504 3.05961 30.6904 2.49963 30.0005 2.49963Z" fill="#E9204F"/>
</g>
<defs>
<clipPath id="clip0">
<rect width="40" height="40" fill="white"/>
</clipPath>
</defs>
</svg>
