<svg width="40" height="40" viewBox="0 0 40 40" fill="none" xmlns="http://www.w3.org/2000/svg">
<g clip-path="url(#clip0)">
<path d="M10 15.7142H1.4286C0.639592 15.7142 0 16.3538 0 17.1428V38.5714C0 39.3604 0.639592 40 1.4286 40H10C10.789 40 11.4286 39.3604 11.4286 38.5714V17.1428C11.4285 16.3538 10.7889 15.7142 10 15.7142ZM8.57142 37.1428H2.85711V18.5714H8.57142V37.1428Z" fill="white"/>
<path d="M24.2857 0H15.7142C14.9252 0 14.2856 0.639592 14.2856 1.4286V38.5714C14.2856 39.3604 14.9252 40 15.7142 40H24.2857C25.0747 40 25.7143 39.3604 25.7143 38.5714V1.4286C25.7143 0.639592 25.0747 0 24.2857 0ZM22.8572 37.1428H17.1428V2.85711H22.8572V37.1428Z" fill="white"/>
<path d="M38.5714 11.4286H30C29.211 11.4286 28.5714 12.0682 28.5714 12.8572V38.5714C28.5714 39.3605 29.211 40 30 40H38.5714C39.3604 40 40 39.3605 40 38.5714V12.8572C40 12.0682 39.3604 11.4286 38.5714 11.4286ZM37.1428 37.1429H31.4285V14.2858H37.1428V37.1429Z" fill="white"/>
</g>
<defs>
<clipPath id="clip0">
<rect width="40" height="40" fill="white"/>
</clipPath>
</defs>
</svg>
